<svg xmlns="http://www.w3.org/2000/svg" xmlns:xlink="http://www.w3.org/1999/xlink" fill="none" version="1.1" width="19" height="19" viewBox="0 0 19 19"><g><path d="M11.4982,6.14975Q11.5275,6.24013,11.5834,6.31701Q11.6393,6.39389,11.7161,6.44975Q11.793,6.50561,11.8834,6.53497Q11.9738,6.56434,12.0688,6.56434L16.6884,6.56434Q16.712,6.56434,16.7355,6.56619Q16.759,6.56804,16.7823,6.57173Q16.8056,6.57541,16.8285,6.58092Q16.8514,6.58642,16.8738,6.5937Q16.8963,6.60099,16.918,6.61001Q16.9398,6.61903,16.9608,6.62973Q16.9818,6.64044,17.0019,6.65276Q17.022,6.66507,17.0411,6.67893Q17.0602,6.69279,17.0781,6.7081Q17.096,6.72341,17.1127,6.74008Q17.1294,6.75674,17.1447,6.77467Q17.16,6.7926,17.1738,6.81167Q17.1877,6.83074,17.2,6.85084Q17.2123,6.87094,17.223,6.89195Q17.2337,6.91295,17.2428,6.93473Q17.2518,6.95651,17.2591,6.97893Q17.2663,7.00135,17.2719,7.02427Q17.2774,7.04719,17.281,7.07048Q17.2847,7.09376,17.2866,7.11726Q17.2884,7.14077,17.2884,7.16434Q17.2884,7.18791,17.2866,7.21142Q17.2847,7.23492,17.281,7.2582Q17.2774,7.28148,17.2719,7.30441Q17.2663,7.32733,17.2591,7.34975Q17.2518,7.37217,17.2428,7.39395Q17.2337,7.41573,17.223,7.43673Q17.2123,7.45774,17.2,7.47784Q17.1877,7.49794,17.1738,7.51701Q17.16,7.53608,17.1447,7.55401Q17.1294,7.57193,17.1127,7.5886Q17.096,7.60527,17.0781,7.62058Q17.0602,7.63589,17.0411,7.64975L13.3037,10.3651Q13.2269,10.421,13.171,10.4978Q13.1152,10.5747,13.0858,10.6651Q13.0564,10.7555,13.0564,10.8505Q13.0564,10.9455,13.0858,11.0359L14.5133,15.4294Q14.5206,15.4519,14.5261,15.4748Q14.5316,15.4977,14.5353,15.521Q14.539,15.5443,14.5408,15.5678Q14.5427,15.5913,14.5427,15.6148Q14.5427,15.6384,14.5408,15.6619Q14.539,15.6854,14.5353,15.7087Q14.5316,15.732,14.5261,15.7549Q14.5206,15.7778,14.5133,15.8003Q14.506,15.8227,14.497,15.8445Q14.488,15.8662,14.4773,15.8872Q14.4666,15.9082,14.4543,15.9283Q14.442,15.9484,14.4281,15.9675Q14.4142,15.9866,14.3989,16.0045Q14.3836,16.0224,14.367,16.0391Q14.3503,16.0558,14.3324,16.0711Q14.3144,16.0864,14.2954,16.1003Q14.2763,16.1141,14.2562,16.1264Q14.2361,16.1387,14.2151,16.1494Q14.1941,16.1601,14.1723,16.1692Q14.1505,16.1782,14.1281,16.1855Q14.1057,16.1928,14.0828,16.1983Q14.0598,16.2038,14.0366,16.2075Q14.0133,16.2111,13.9898,16.213Q13.9663,16.2148,13.9427,16.2148Q13.9191,16.2148,13.8956,16.213Q13.8721,16.2111,13.8488,16.2075Q13.8255,16.2038,13.8026,16.1983Q13.7797,16.1928,13.7573,16.1855Q13.7349,16.1782,13.7131,16.1692Q13.6913,16.1601,13.6703,16.1494Q13.6493,16.1387,13.6292,16.1264Q13.6091,16.1141,13.59,16.1003L9.85267,13.3849Q9.77579,13.329,9.68541,13.2997Q9.59503,13.2703,9.5,13.2703Q9.40497,13.2703,9.31459,13.2997Q9.22421,13.329,9.14733,13.3849L5.40998,16.1003Q5.39091,16.1141,5.37081,16.1264Q5.35071,16.1387,5.3297,16.1494Q5.3087,16.1601,5.28692,16.1692Q5.26514,16.1782,5.24272,16.1855Q5.2203,16.1928,5.19738,16.1983Q5.17445,16.2038,5.15117,16.2075Q5.12789,16.2111,5.10438,16.213Q5.08088,16.2148,5.05731,16.2148Q5.03373,16.2148,5.01023,16.213Q4.98673,16.2111,4.96345,16.2075Q4.94016,16.2038,4.91724,16.1983Q4.89432,16.1928,4.8719,16.1855Q4.84948,16.1782,4.8277,16.1692Q4.80592,16.1601,4.78491,16.1494Q4.76391,16.1387,4.74381,16.1264Q4.72371,16.1141,4.70464,16.1003Q4.68557,16.0864,4.66764,16.0711Q4.64971,16.0558,4.63305,16.0391Q4.61638,16.0224,4.60107,16.0045Q4.58576,15.9866,4.5719,15.9675Q4.55804,15.9484,4.54572,15.9283Q4.53341,15.9082,4.5227,15.8872Q4.512,15.8662,4.50298,15.8445Q4.49396,15.8227,4.48667,15.8003Q4.47939,15.7778,4.47389,15.7549Q4.46838,15.732,4.4647,15.7087Q4.46101,15.6854,4.45916,15.6619Q4.45731,15.6384,4.45731,15.6148Q4.45731,15.5913,4.45916,15.5678Q4.46101,15.5443,4.46469,15.521Q4.46838,15.4977,4.47389,15.4748Q4.47939,15.4519,4.48667,15.4294L5.91421,11.0359Q5.94358,10.9455,5.94358,10.8505Q5.94358,10.7555,5.91421,10.6651Q5.88485,10.5747,5.82899,10.4978Q5.77313,10.421,5.69625,10.3651L1.9589,7.64975Q1.93983,7.63589,1.9219,7.62058Q1.90398,7.60527,1.88731,7.5886Q1.87064,7.57193,1.85533,7.55401Q1.84002,7.53608,1.82616,7.51701Q1.81231,7.49794,1.79999,7.47784Q1.78767,7.45774,1.77697,7.43673Q1.76627,7.41573,1.75725,7.39395Q1.74822,7.37217,1.74094,7.34975Q1.73365,7.32733,1.72815,7.30441Q1.72265,7.28148,1.71896,7.2582Q1.71527,7.23492,1.71342,7.21142Q1.71157,7.18791,1.71157,7.16434Q1.71157,7.14077,1.71342,7.11726Q1.71527,7.09376,1.71896,7.07048Q1.72265,7.0472,1.72815,7.02427Q1.73365,7.00135,1.74094,6.97893Q1.74822,6.95651,1.75725,6.93473Q1.76627,6.91295,1.77697,6.89195Q1.78767,6.87094,1.79999,6.85084Q1.81231,6.83074,1.82616,6.81167Q1.84002,6.7926,1.85533,6.77467Q1.87064,6.75674,1.88731,6.74008Q1.90398,6.72341,1.9219,6.7081Q1.93983,6.69279,1.9589,6.67893Q1.97797,6.66507,1.99807,6.65276Q2.01817,6.64044,2.03918,6.62973Q2.06018,6.61903,2.08196,6.61001Q2.10374,6.60099,2.12616,6.59371Q2.14858,6.58642,2.17151,6.58092Q2.19443,6.57541,2.21771,6.57173Q2.241,6.56804,2.2645,6.56619Q2.288,6.56434,2.31157,6.56434L6.93119,6.56434Q7.02622,6.56434,7.1166,6.53497Q7.20698,6.50561,7.28386,6.44975Q7.36074,6.39389,7.4166,6.31701Q7.47246,6.24013,7.50183,6.14975L8.92937,1.75623Q8.93665,1.73381,8.94567,1.71203Q8.95469,1.69025,8.9654,1.66925Q8.9761,1.64824,8.98842,1.62814Q9.00073,1.60804,9.01459,1.58897Q9.02845,1.5699,9.04376,1.55197Q9.05907,1.53405,9.07574,1.51738Q9.09241,1.50071,9.11033,1.4854Q9.12826,1.47009,9.14733,1.45623Q9.1664,1.44237,9.1865,1.43006Q9.2066,1.41774,9.22761,1.40704Q9.24861,1.39633,9.27039,1.38731Q9.29217,1.37829,9.31459,1.37101Q9.33701,1.36372,9.35993,1.35822Q9.38286,1.35272,9.40614,1.34903Q9.42942,1.34534,9.45293,1.34349Q9.47643,1.34164,9.5,1.34164Q9.52358,1.34164,9.54708,1.34349Q9.57058,1.34534,9.59386,1.34903Q9.61715,1.35272,9.64007,1.35822Q9.66299,1.36372,9.68541,1.37101Q9.70783,1.37829,9.72961,1.38731Q9.75139,1.39633,9.7724,1.40704Q9.7934,1.41774,9.8135,1.43006Q9.8336,1.44237,9.85267,1.45623Q9.87174,1.47009,9.88967,1.4854Q9.9076,1.50071,9.92426,1.51738Q9.94093,1.53405,9.95625,1.55197Q9.97155,1.5699,9.98541,1.58897Q9.99927,1.60804,10.0116,1.62814Q10.0239,1.64824,10.0346,1.66925Q10.0453,1.69025,10.0543,1.71203Q10.0633,1.73381,10.0706,1.75623L11.4982,6.14975Z" fill="#7691AF" fill-opacity="1"/><path d="M12.0688,6.56434Q11.9738,6.56434,11.8834,6.53497Q11.793,6.50561,11.7161,6.44975Q11.6393,6.39389,11.5834,6.31701Q11.5275,6.24013,11.4982,6.14975L10.0706,1.75623Q10.0413,1.66585,9.98541,1.58897Q9.92955,1.51209,9.85267,1.45623Q9.77579,1.40037,9.68541,1.37101Q9.59503,1.34164,9.5,1.34164Q9.40497,1.34164,9.31459,1.37101Q9.22421,1.40037,9.14733,1.45623Q9.07045,1.51209,9.01459,1.58897Q8.95873,1.66585,8.92937,1.75623L7.50182,6.14975Q7.47246,6.24013,7.4166,6.31701Q7.36074,6.39389,7.28386,6.44975Q7.20698,6.50561,7.1166,6.53497Q7.02622,6.56434,6.93119,6.56434L2.31157,6.56434Q2.21654,6.56434,2.12616,6.59371Q2.03578,6.62307,1.9589,6.67893Q1.88202,6.73479,1.82616,6.81167Q1.77031,6.88855,1.74094,6.97893Q1.71157,7.06931,1.71157,7.16434Q1.71157,7.25937,1.74094,7.34975Q1.77031,7.44013,1.82616,7.51701Q1.88202,7.59389,1.9589,7.64975L5.69625,10.3651Q5.77313,10.421,5.82899,10.4978Q5.88485,10.5747,5.91421,10.6651Q5.94358,10.7555,5.94358,10.8505Q5.94358,10.9455,5.91421,11.0359L4.48667,15.4294Q4.45731,15.5198,4.45731,15.6148Q4.45731,15.7099,4.48667,15.8003Q4.51604,15.8906,4.5719,15.9675Q4.62776,16.0444,4.70464,16.1003Q4.78152,16.1561,4.8719,16.1855Q4.96228,16.2148,5.05731,16.2148Q5.15234,16.2148,5.24272,16.1855Q5.3331,16.1561,5.40998,16.1003L9.14733,13.3849Q9.22421,13.329,9.31459,13.2997Q9.40497,13.2703,9.5,13.2703Q9.59503,13.2703,9.68541,13.2997Q9.77579,13.329,9.85267,13.3849L13.59,16.1003Q13.6669,16.1561,13.7573,16.1855Q13.8477,16.2148,13.9427,16.2148Q14.0377,16.2148,14.1281,16.1855Q14.2185,16.1561,14.2954,16.1003Q14.3722,16.0444,14.4281,15.9675Q14.484,15.8906,14.5133,15.8003Q14.5427,15.7099,14.5427,15.6148Q14.5427,15.5198,14.5133,15.4294L13.0858,11.0359Q13.0564,10.9455,13.0564,10.8505Q13.0564,10.7555,13.0858,10.6651Q13.1152,10.5747,13.171,10.4978Q13.2269,10.421,13.3037,10.3651L17.0411,7.64975Q17.118,7.59389,17.1738,7.51701Q17.2297,7.44013,17.2591,7.34975Q17.2884,7.25937,17.2884,7.16434Q17.2884,7.06931,17.2591,6.97893Q17.2297,6.88855,17.1738,6.81167Q17.118,6.73479,17.0411,6.67893Q16.9642,6.62307,16.8738,6.59371Q16.7835,6.56434,16.6884,6.56434L12.0688,6.56434ZM9.5,1.94164L10.9275,6.33516Q11.197,7.16434,12.0688,7.16434L16.6884,7.16434L12.9511,9.87968Q12.2457,10.3921,12.5152,11.2213L13.9427,15.6148L10.2053,12.8995Q9.5,12.387,8.79466,12.8995L5.05731,15.6148L6.48485,11.2213Q6.75426,10.3921,6.04892,9.87968L2.31157,7.16434L6.93119,7.16434Q7.80304,7.16434,8.07246,6.33516L9.5,1.94164Z" fill-rule="evenodd" fill="#1C3959" fill-opacity="1"/></g></svg>